<svg width="262" height="113" viewBox="0 0 262 113" fill="none" xmlns="http://www.w3.org/2000/svg">
<path d="M148.453 54.1926C149.642 55.9753 151.623 55.3811 152.415 53.4002C148.77 41.1984 151.623 33.1958 159.546 29.8284H160.338C168.856 33.3939 171.233 44.2884 167.271 51.6175C166.677 56.1734 171.753 55.5791 172.223 54.1926C176.185 42.5057 169.846 33.1958 161.725 28.838V28.0457C165.092 26.461 173.808 15.7645 172.62 10.4163C171.908 7.21225 167.514 8.83162 167.667 10.0201C168.46 16.1607 164.498 25.2725 160.338 26.8572C159.863 27.1741 159.348 26.9892 159.15 26.8572C155.505 24.3217 151.821 16.953 152.217 10.8125C151.821 8.43546 147.661 8.03932 146.869 10.2182C146.71 17.9831 154.594 25.0744 157.961 28.0457V28.838C150.632 32.9977 144.492 41.9114 148.453 54.1926Z" fill="#2F6C81"/>
<path d="M157.565 17.1511C157.724 18.8942 159.348 19.4621 160.14 19.5281C161.065 19.5281 162.913 19.0131 162.913 16.953C162.913 14.893 161.065 14.3779 160.14 14.3779C158.397 14.3779 157.565 15.7645 157.565 17.1511Z" fill="#2F6C81"/>
<path d="M114.978 3.48348C119.415 -0.953571 123.693 2.69114 122.307 5.26622C118.345 13.3876 120.326 21.4298 125.872 26.6591C119.137 26.6591 113.551 15.21 114.978 3.48348Z" fill="#982D3D"/>
<path d="M133.201 30.0266C132.25 29.8681 132.211 30.0266 132.607 30.6208C141.323 36.3652 145.245 43.3773 145.878 51.6176C146.061 53.9946 149.8 55.9754 151.227 52.0137C151.227 42.7038 140.134 33.5921 133.201 30.0266Z" fill="#A85432"/>
<path d="M98.1406 51.8157C92.5942 40.525 100.518 30.6208 105.272 29.8285H106.064C112.719 32.364 117.156 37.7518 112.403 54.3907C114.304 58.0355 116.76 55.9754 117.553 54.1927C117.87 46.1109 120.92 36.5633 107.252 28.64V28.0458C111.61 25.4707 116.958 19.7263 117.751 11.2087C115.691 7.40556 113.195 9.22792 112.799 11.2087C113.195 19.7263 107.649 27.0553 105.272 27.0553C102.895 27.0553 97.3482 15.7646 97.9425 10.4164C97.3482 7.44518 92.5942 7.44518 92 10.4164C92.3169 16.5966 98.9329 25.8669 103.489 28.0458V28.64C93.0301 33.7109 90.6134 44.4866 92.7924 53.5984C96.5955 57.877 98.5368 53.5984 98.1406 51.8157Z" fill="#9A5B64"/>
<path d="M101.706 16.1608C101.706 18.7359 103.621 19.4622 104.479 19.7263C105.536 19.3301 107.649 18.2605 107.649 17.1512C107.649 15.7646 106.064 13.9819 104.479 13.9819C102.895 13.9819 101.706 14.9723 101.706 16.1608Z" fill="#9A5B64"/>
<path d="M127.853 10.6145C127.853 12.5953 129.438 13.5857 131.022 13.5857C132.607 13.5857 134.192 12.3972 134.192 10.6145C134.192 9.02982 132.211 7.84133 131.022 7.84133C129.041 7.84133 127.853 9.11472 127.853 10.6145Z" fill="#335B7E"/>
<path d="M149.444 2.4931C148.018 -0.83469 144.492 -0.478165 142.907 1.50268C142.511 15.3684 138.946 19.2905 131.022 25.4706C117.751 32.9978 114.978 44.2885 119.137 57.1638C121.118 59.1447 124.089 57.1638 124.486 55.7773C122.307 50.429 117.949 34.5824 131.022 27.4515C145.086 17.5473 148.85 12.3972 149.444 2.4931Z" fill="#335B7E"/>
<path d="M190.395 70.0909L195.316 84.9744H195.51L200.422 70.0909H204.189L197.523 89H193.294L186.637 70.0909H190.395ZM206.899 89H203.243L209.9 70.0909H214.128L220.794 89H217.138L212.088 73.9688H211.94L206.899 89ZM207.019 81.5859H216.99V84.3374H207.019V81.5859ZM223.285 89V70.0909H226.71V78.7791H226.941L234.318 70.0909H238.501L231.188 78.576L238.566 89H234.448L228.806 80.8935L226.71 83.3679V89H223.285ZM240.881 89V70.0909H252.994V72.9624H244.306V78.0959H252.163V80.9673H244.306V89H240.881ZM259.54 70.0909V89H256.115V70.0909H259.54Z" fill="#2C304C"/>
<path d="M88.6156 70.0909H93.0936L97.4054 78.2344H97.59L101.902 70.0909H106.38L99.4828 82.3153V89H95.5126V82.3153L88.6156 70.0909Z" fill="#2C304C"/>
<path d="M108.178 89H103.894L110.422 70.0909H115.574L122.092 89H117.808L113.072 74.4119H112.924L108.178 89ZM107.91 81.5675H118.03V84.6882H107.91V81.5675Z" fill="#2C304C"/>
<path d="M143.178 89H138.894L145.422 70.0909H150.574L157.092 89H152.808L148.072 74.4119H147.924L143.178 89ZM142.91 81.5675H153.03V84.6882H142.91V81.5675Z" fill="#2C304C"/>
<path d="M159.748 70.0909H164.678L169.886 82.7955H170.107L175.315 70.0909H180.245V89H176.367V76.6925H176.21L171.317 88.9077H168.676L163.783 76.6463H163.626V89H159.748V70.0909Z" fill="#2C304C"/>
<path d="M132.383 75.5291C132.309 74.7843 131.992 74.2057 131.432 73.7933C130.872 73.3809 130.111 73.1747 129.151 73.1747C128.499 73.1747 127.948 73.267 127.498 73.4517C127.049 73.6302 126.704 73.8795 126.464 74.1996C126.23 74.5196 126.114 74.8828 126.114 75.2891C126.101 75.6276 126.172 75.9231 126.326 76.1754C126.486 76.4278 126.704 76.6463 126.981 76.831C127.258 77.0095 127.579 77.1664 127.942 77.3018C128.305 77.4311 128.693 77.5419 129.105 77.6342L130.804 78.0405C131.629 78.2251 132.386 78.4714 133.075 78.7791C133.765 79.0869 134.362 79.4654 134.866 79.9148C135.371 80.3641 135.762 80.8935 136.039 81.5028C136.322 82.1122 136.467 82.8108 136.473 83.5987C136.467 84.7559 136.171 85.7592 135.587 86.6087C135.008 87.4519 134.171 88.1075 133.075 88.5753C131.986 89.0369 130.672 89.2678 129.133 89.2678C127.606 89.2678 126.277 89.0339 125.144 88.5661C124.018 88.0982 123.137 87.4058 122.503 86.4886C121.876 85.5653 121.546 84.4235 121.516 83.0632H125.384C125.427 83.6972 125.609 84.2266 125.929 84.6513C126.255 85.0698 126.689 85.3868 127.231 85.6023C127.779 85.8116 128.397 85.9162 129.087 85.9162C129.764 85.9162 130.351 85.8177 130.85 85.6207C131.355 85.4238 131.746 85.1499 132.023 84.799C132.3 84.4482 132.438 84.045 132.438 83.5895C132.438 83.1648 132.312 82.8078 132.06 82.5185C131.813 82.2292 131.45 81.983 130.97 81.7798C130.496 81.5767 129.914 81.392 129.225 81.2259L127.166 80.7088C125.572 80.321 124.313 79.7147 123.39 78.8899C122.467 78.0651 122.008 76.9541 122.014 75.5568C122.008 74.4119 122.313 73.4117 122.928 72.5561C123.55 71.7005 124.402 71.0327 125.486 70.5526C126.569 70.0724 127.8 69.8324 129.179 69.8324C130.582 69.8324 131.807 70.0724 132.854 70.5526C133.906 71.0327 134.725 71.7005 135.31 72.5561C135.894 73.4117 136.196 74.4027 136.214 75.5291H132.383ZM128.117 88.9261H129.927L129.779 89.7294C130.413 89.8279 130.93 90.0649 131.33 90.4403C131.736 90.8158 131.943 91.3267 131.949 91.973C131.955 92.8902 131.53 93.6196 130.675 94.1612C129.819 94.709 128.619 94.983 127.074 94.983L127.037 93.2287C127.812 93.2287 128.419 93.1333 128.856 92.9425C129.299 92.7578 129.53 92.4685 129.548 92.0746C129.561 91.6991 129.416 91.4129 129.114 91.2159C128.813 91.0189 128.342 90.8804 127.702 90.8004L128.117 88.9261Z" fill="#2C304C"/>
<path d="M46.0199 79.5455C46.0199 81.6075 45.629 83.3617 44.8473 84.8082C44.0717 86.2547 43.013 87.3596 41.6712 88.1229C40.3355 88.88 38.8336 89.2585 37.1655 89.2585C35.4851 89.2585 33.977 88.8769 32.6413 88.1136C31.3056 87.3504 30.25 86.2455 29.4744 84.799C28.6989 83.3525 28.3111 81.6013 28.3111 79.5455C28.3111 77.4834 28.6989 75.7292 29.4744 74.2827C30.25 72.8362 31.3056 71.7344 32.6413 70.9773C33.977 70.214 35.4851 69.8324 37.1655 69.8324C38.8336 69.8324 40.3355 70.214 41.6712 70.9773C43.013 71.7344 44.0717 72.8362 44.8473 74.2827C45.629 75.7292 46.0199 77.4834 46.0199 79.5455ZM41.9666 79.5455C41.9666 78.2098 41.7666 77.0833 41.3665 76.1662C40.9725 75.2491 40.4155 74.5535 39.6953 74.0795C38.9751 73.6056 38.1319 73.3686 37.1655 73.3686C36.1991 73.3686 35.3558 73.6056 34.6357 74.0795C33.9155 74.5535 33.3554 75.2491 32.9553 76.1662C32.5613 77.0833 32.3643 78.2098 32.3643 79.5455C32.3643 80.8812 32.5613 82.0076 32.9553 82.9247C33.3554 83.8419 33.9155 84.5374 34.6357 85.0114C35.3558 85.4853 36.1991 85.7223 37.1655 85.7223C38.1319 85.7223 38.9751 85.4853 39.6953 85.0114C40.4155 84.5374 40.9725 83.8419 41.3665 82.9247C41.7666 82.0076 41.9666 80.8812 41.9666 79.5455Z" fill="#2C304C"/>
<path d="M11.8778 90H2.33878V63.0909H11.9567C14.6634 63.0909 16.9934 63.6296 18.9467 64.707C20.9001 65.7757 22.4023 67.313 23.4535 69.3189C24.5134 71.3248 25.0433 73.7249 25.0433 76.5192C25.0433 79.3222 24.5134 81.7311 23.4535 83.7457C22.4023 85.7604 20.8913 87.3065 18.9205 88.3839C16.9583 89.4613 14.6108 90 11.8778 90ZM8.02805 85.1254H11.6413C13.3232 85.1254 14.7378 84.8275 15.8853 84.2319C17.0415 83.6275 17.9087 82.6946 18.4869 81.4332C19.0737 80.1631 19.3672 78.5251 19.3672 76.5192C19.3672 74.5308 19.0737 72.9059 18.4869 71.6445C17.9087 70.3832 17.0459 69.4547 15.8984 68.859C14.7509 68.2634 13.3363 67.9656 11.6545 67.9656H8.02805V85.1254Z" fill="#3F7285"/>
<path d="M61.9364 70.8299C61.8313 69.77 61.3802 68.9466 60.5831 68.3597C59.786 67.7728 58.7042 67.4794 57.3377 67.4794C56.4092 67.4794 55.6252 67.6108 54.9858 67.8736C54.3464 68.1276 53.8558 68.4824 53.5142 68.9379C53.1813 69.3933 53.0149 69.9102 53.0149 70.4883C52.9974 70.9701 53.0981 71.3905 53.3171 71.7496C53.5449 72.1088 53.8558 72.4197 54.25 72.6825C54.6442 72.9366 55.0997 73.1599 55.6165 73.3526C56.1333 73.5366 56.6851 73.6942 57.272 73.8256L59.6896 74.4038C60.8634 74.6665 61.9408 75.0169 62.9219 75.4549C63.9029 75.8929 64.7526 76.4316 65.4709 77.071C66.1892 77.7105 66.7454 78.4638 67.1396 79.331C67.5425 80.1982 67.7483 81.1924 67.7571 82.3136C67.7483 83.9603 67.3279 85.3881 66.4957 86.5969C65.6723 87.797 64.4811 88.7299 62.9219 89.3956C61.3714 90.0526 59.5013 90.381 57.3114 90.381C55.1391 90.381 53.247 90.0482 51.6353 89.3825C50.0323 88.7167 48.7797 87.7313 47.8775 86.4261C46.984 85.1122 46.5154 83.4873 46.4716 81.5515H51.9769C52.0382 82.4537 52.2966 83.207 52.7521 83.8114C53.2164 84.4071 53.8339 84.8582 54.6048 85.1648C55.3844 85.4626 56.2647 85.6115 57.2457 85.6115C58.2093 85.6115 59.0458 85.4714 59.7553 85.1911C60.4736 84.9107 61.0298 84.521 61.424 84.0217C61.8182 83.5224 62.0153 82.9486 62.0153 82.3004C62.0153 81.696 61.8357 81.188 61.4766 80.7763C61.1262 80.3646 60.6094 80.0142 59.9261 79.7251C59.2517 79.4361 58.4239 79.1733 57.4428 78.9368L54.5128 78.201C52.2441 77.6491 50.4528 76.7863 49.1388 75.6126C47.8249 74.4388 47.1723 72.8577 47.1811 70.8693C47.1723 69.2401 47.6059 67.8166 48.4819 66.5991C49.3666 65.3815 50.5798 64.4311 52.1214 63.7479C53.6631 63.0646 55.415 62.723 57.3771 62.723C59.3743 62.723 61.1174 63.0646 62.6065 63.7479C64.1044 64.4311 65.2694 65.3815 66.1016 66.5991C66.9337 67.8166 67.3629 69.2269 67.3892 70.8299H61.9364Z" fill="#3F7285"/>
<path d="M68.9233 73.3871V70.0909H84.4531V73.3871H78.6641V89H74.7124V73.3871H68.9233Z" fill="#2C304C"/>
<path d="M6.6875 110H3.32102V99.0909H6.83665C7.89489 99.0909 8.80043 99.3093 9.55327 99.7461C10.3061 100.179 10.8832 100.803 11.2844 101.616C11.6857 102.425 11.8864 103.395 11.8864 104.524C11.8864 105.661 11.6839 106.639 11.2791 107.459C10.8743 108.276 10.2848 108.904 9.51065 109.345C8.73651 109.782 7.79545 110 6.6875 110ZM4.64205 108.828H6.60227C7.50426 108.828 8.25178 108.654 8.84482 108.306C9.43786 107.958 9.87997 107.463 10.1712 106.82C10.4624 106.177 10.608 105.412 10.608 104.524C10.608 103.643 10.4641 102.885 10.1765 102.25C9.88885 101.61 9.45916 101.12 8.88743 100.779C8.3157 100.435 7.60369 100.263 6.75142 100.263H4.64205V108.828ZM22.4068 104.545C22.4068 105.696 22.1991 106.69 21.7836 107.528C21.3681 108.366 20.7982 109.013 20.0737 109.467C19.3493 109.922 18.5219 110.149 17.5915 110.149C16.6611 110.149 15.8337 109.922 15.1092 109.467C14.3848 109.013 13.8148 108.366 13.3994 107.528C12.9839 106.69 12.7761 105.696 12.7761 104.545C12.7761 103.395 12.9839 102.401 13.3994 101.562C13.8148 100.724 14.3848 100.078 15.1092 99.6236C15.8337 99.169 16.6611 98.9418 17.5915 98.9418C18.5219 98.9418 19.3493 99.169 20.0737 99.6236C20.7982 100.078 21.3681 100.724 21.7836 101.562C22.1991 102.401 22.4068 103.395 22.4068 104.545ZM21.1284 104.545C21.1284 103.601 20.9704 102.804 20.6543 102.154C20.3418 101.504 19.9175 101.012 19.3813 100.678C18.8486 100.344 18.252 100.178 17.5915 100.178C16.931 100.178 16.3326 100.344 15.7964 100.678C15.2637 101.012 14.8393 101.504 14.5233 102.154C14.2108 102.804 14.0545 103.601 14.0545 104.545C14.0545 105.49 14.2108 106.287 14.5233 106.937C14.8393 107.587 15.2637 108.079 15.7964 108.413C16.3326 108.746 16.931 108.913 17.5915 108.913C18.252 108.913 18.8486 108.746 19.3813 108.413C19.9175 108.079 20.3418 107.587 20.6543 106.937C20.9704 106.287 21.1284 105.49 21.1284 104.545ZM29.694 101.818C29.63 101.278 29.3708 100.859 28.9163 100.561C28.4617 100.263 27.9042 100.114 27.2437 100.114C26.7607 100.114 26.3381 100.192 25.9759 100.348C25.6173 100.504 25.3367 100.719 25.1343 100.993C24.9354 101.266 24.836 101.577 24.836 101.925C24.836 102.216 24.9053 102.466 25.0438 102.676C25.1858 102.882 25.3669 103.054 25.5871 103.192C25.8072 103.327 26.0381 103.439 26.2795 103.528C26.521 103.613 26.743 103.683 26.9454 103.736L28.0533 104.034C28.3374 104.109 28.6535 104.212 29.0015 104.343C29.3531 104.474 29.6886 104.654 30.0082 104.881C30.3314 105.105 30.5977 105.392 30.8072 105.744C31.0168 106.096 31.1215 106.527 31.1215 107.038C31.1215 107.628 30.967 108.161 30.6581 108.636C30.3527 109.112 29.9053 109.49 29.3158 109.771C28.7298 110.051 28.0178 110.192 27.1798 110.192C26.3985 110.192 25.722 110.066 25.1503 109.814C24.5821 109.561 24.1347 109.21 23.808 108.759C23.4848 108.308 23.3019 107.784 23.2593 107.188H24.6229C24.6585 107.599 24.7969 107.94 25.0384 108.21C25.2835 108.477 25.5924 108.675 25.9653 108.807C26.3417 108.935 26.7465 108.999 27.1798 108.999C27.684 108.999 28.1368 108.917 28.5381 108.754C28.9393 108.587 29.2572 108.356 29.4915 108.061C29.7259 107.763 29.8431 107.415 29.8431 107.017C29.8431 106.655 29.7419 106.36 29.5395 106.133C29.3371 105.906 29.0707 105.721 28.7405 105.579C28.4102 105.437 28.0533 105.312 27.6698 105.206L26.3275 104.822C25.4752 104.577 24.8005 104.228 24.3033 103.773C23.8062 103.319 23.5576 102.724 23.5576 101.989C23.5576 101.378 23.7227 100.845 24.053 100.391C24.3868 99.9325 24.8342 99.5774 25.3953 99.3253C25.9599 99.0696 26.5903 98.9418 27.2863 98.9418C27.9894 98.9418 28.6144 99.0678 29.1613 99.32C29.7082 99.5685 30.1414 99.9094 30.461 100.343C30.7842 100.776 30.9546 101.268 30.9724 101.818H29.694ZM31.7969 100.263V99.0909H39.9787V100.263H36.5483V110H35.2273V100.263H31.7969Z" fill="#22223A"/>
<path d="M41.358 99.8182H42.7699L45.5938 104.571H45.7131L48.5369 99.8182H49.9489L46.2699 105.804V110H45.0369V105.804L41.358 99.8182ZM50.7821 110H49.4894L53.2281 99.8182H54.5008L58.2394 110H56.9468L53.9042 101.429H53.8247L50.7821 110ZM51.2593 106.023H56.4696V107.116H51.2593V106.023ZM65.2536 102.364C65.1939 101.86 64.9519 101.469 64.5277 101.19C64.1035 100.912 63.5831 100.773 62.9666 100.773C62.5159 100.773 62.1215 100.846 61.7834 100.991C61.4486 101.137 61.1868 101.338 60.9979 101.593C60.8123 101.848 60.7195 102.138 60.7195 102.463C60.7195 102.735 60.7841 102.969 60.9134 103.164C61.0459 103.356 61.215 103.517 61.4205 103.646C61.626 103.772 61.8414 103.877 62.0668 103.96C62.2921 104.039 62.4993 104.104 62.6882 104.153L63.7223 104.432C63.9875 104.501 64.2824 104.598 64.6073 104.72C64.9354 104.843 65.2486 105.01 65.5469 105.222C65.8485 105.431 66.0971 105.7 66.2926 106.028C66.4882 106.356 66.5859 106.759 66.5859 107.236C66.5859 107.786 66.4418 108.283 66.1534 108.727C65.8684 109.171 65.4508 109.524 64.9006 109.786C64.3537 110.048 63.6892 110.179 62.907 110.179C62.1778 110.179 61.5464 110.061 61.0128 109.826C60.4825 109.591 60.0649 109.263 59.7599 108.842C59.4583 108.421 59.2876 107.932 59.2479 107.375H60.5206C60.5537 107.759 60.683 108.078 60.9084 108.33C61.1371 108.578 61.4254 108.764 61.7734 108.886C62.1248 109.006 62.5026 109.065 62.907 109.065C63.3776 109.065 63.8002 108.989 64.1747 108.837C64.5492 108.681 64.8459 108.465 65.0646 108.19C65.2834 107.912 65.3928 107.587 65.3928 107.216C65.3928 106.878 65.2983 106.603 65.1094 106.391C64.9205 106.179 64.6719 106.006 64.3636 105.874C64.0554 105.741 63.7223 105.625 63.3644 105.526L62.1115 105.168C61.3161 104.939 60.6863 104.612 60.2223 104.188C59.7583 103.764 59.5263 103.209 59.5263 102.523C59.5263 101.953 59.6804 101.455 59.9886 101.031C60.3002 100.604 60.7178 100.272 61.2415 100.037C61.7685 99.7983 62.3568 99.679 63.0064 99.679C63.6626 99.679 64.246 99.7966 64.7564 100.032C65.2668 100.264 65.6712 100.582 65.9695 100.987C66.2711 101.391 66.4302 101.85 66.4467 102.364H65.2536ZM62.4098 109.96H63.3842L63.3047 110.358C63.5632 110.398 63.8002 110.505 64.0156 110.681C64.2311 110.86 64.3388 111.143 64.3388 111.531C64.3388 111.959 64.1615 112.307 63.8068 112.575C63.4555 112.847 62.9368 112.983 62.2507 112.983L62.2109 112.207C62.5192 112.207 62.7744 112.158 62.9766 112.058C63.1821 111.962 63.2848 111.8 63.2848 111.571C63.2848 111.342 63.2003 111.187 63.0313 111.104C62.8622 111.021 62.5888 110.964 62.2109 110.935L62.4098 109.96ZM68.8907 110H67.5981L71.3367 99.8182H72.6095L76.3481 110H75.0555L72.0129 101.429H71.9333L68.8907 110ZM69.368 106.023H74.5782V107.116H69.368V106.023ZM77.794 99.8182H79.2656L82.7259 108.27H82.8452L86.3054 99.8182H87.777V110H86.6236V102.264H86.5242L83.3423 110H82.2287L79.0469 102.264H78.9475V110H77.794V99.8182Z" fill="#22223A"/>
<path d="M97.6875 110H94.321V99.0909H97.8366C98.8949 99.0909 99.8004 99.3093 100.553 99.7461C101.306 100.179 101.883 100.803 102.284 101.616C102.686 102.425 102.886 103.395 102.886 104.524C102.886 105.661 102.684 106.639 102.279 107.459C101.874 108.276 101.285 108.904 100.511 109.345C99.7365 109.782 98.7955 110 97.6875 110ZM95.642 108.828H97.6023C98.5043 108.828 99.2518 108.654 99.8448 108.306C100.438 107.958 100.88 107.463 101.171 106.82C101.462 106.177 101.608 105.412 101.608 104.524C101.608 103.643 101.464 102.885 101.176 102.25C100.889 101.61 100.459 101.12 99.8874 100.779C99.3157 100.435 98.6037 100.263 97.7514 100.263H95.642V108.828ZM113.632 104.545C113.632 105.696 113.424 106.69 113.009 107.528C112.593 108.366 112.023 109.013 111.299 109.467C110.574 109.922 109.747 110.149 108.816 110.149C107.886 110.149 107.059 109.922 106.334 109.467C105.61 109.013 105.04 108.366 104.624 107.528C104.209 106.69 104.001 105.696 104.001 104.545C104.001 103.395 104.209 102.401 104.624 101.562C105.04 100.724 105.61 100.078 106.334 99.6236C107.059 99.169 107.886 98.9418 108.816 98.9418C109.747 98.9418 110.574 99.169 111.299 99.6236C112.023 100.078 112.593 100.724 113.009 101.562C113.424 102.401 113.632 103.395 113.632 104.545ZM112.353 104.545C112.353 103.601 112.195 102.804 111.879 102.154C111.567 101.504 111.142 101.012 110.606 100.678C110.074 100.344 109.477 100.178 108.816 100.178C108.156 100.178 107.558 100.344 107.021 100.678C106.489 101.012 106.064 101.504 105.748 102.154C105.436 102.804 105.28 103.601 105.28 104.545C105.28 105.49 105.436 106.287 105.748 106.937C106.064 107.587 106.489 108.079 107.021 108.413C107.558 108.746 108.156 108.913 108.816 108.913C109.477 108.913 110.074 108.746 110.606 108.413C111.142 108.079 111.567 107.587 111.879 106.937C112.195 106.287 112.353 105.49 112.353 104.545ZM117.16 110L114.177 99.0909H115.519L117.799 107.976H117.905L120.228 99.0909H121.719L124.042 107.976H124.148L126.428 99.0909H127.77L124.787 110H123.424L121.016 101.307H120.931L118.523 110H117.16ZM137.392 99.0909V110H136.113L130.169 101.435H130.062V110H128.741V99.0909H130.02L135.986 107.678H136.092V99.0909H137.392Z" fill="#22223A"/>
<path d="M148.287 101.818C148.223 101.278 147.964 100.859 147.509 100.561C147.055 100.263 146.497 100.114 145.837 100.114C145.354 100.114 144.931 100.192 144.569 100.348C144.21 100.504 143.93 100.719 143.727 100.993C143.528 101.266 143.429 101.577 143.429 101.925C143.429 102.216 143.498 102.466 143.637 102.676C143.779 102.882 143.96 103.054 144.18 103.192C144.4 103.327 144.631 103.439 144.873 103.528C145.114 103.613 145.336 103.683 145.538 103.736L146.646 104.034C146.93 104.109 147.246 104.212 147.594 104.343C147.946 104.474 148.282 104.654 148.601 104.881C148.924 105.105 149.191 105.392 149.4 105.744C149.61 106.096 149.714 106.527 149.714 107.038C149.714 107.628 149.56 108.161 149.251 108.636C148.946 109.112 148.498 109.49 147.909 109.771C147.323 110.051 146.611 110.192 145.773 110.192C144.991 110.192 144.315 110.066 143.743 109.814C143.175 109.561 142.728 109.21 142.401 108.759C142.078 108.308 141.895 107.784 141.852 107.188H143.216C143.251 107.599 143.39 107.94 143.631 108.21C143.876 108.477 144.185 108.675 144.558 108.807C144.935 108.935 145.339 108.999 145.773 108.999C146.277 108.999 146.73 108.917 147.131 108.754C147.532 108.587 147.85 108.356 148.085 108.061C148.319 107.763 148.436 107.415 148.436 107.017C148.436 106.655 148.335 106.36 148.132 106.133C147.93 105.906 147.664 105.721 147.333 105.579C147.003 105.437 146.646 105.312 146.263 105.206L144.92 104.822C144.068 104.577 143.393 104.228 142.896 103.773C142.399 103.319 142.151 102.724 142.151 101.989C142.151 101.378 142.316 100.845 142.646 100.391C142.98 99.9325 143.427 99.5774 143.988 99.3253C144.553 99.0696 145.183 98.9418 145.879 98.9418C146.582 98.9418 147.207 99.0678 147.754 99.32C148.301 99.5685 148.734 99.9094 149.054 100.343C149.377 100.776 149.548 101.268 149.565 101.818H148.287ZM150.911 110V99.0909H157.495V100.263H152.232V103.949H157.154V105.121H152.232V108.828H157.58V110H150.911ZM167.552 99.0909V110H166.273L160.329 101.435H160.222V110H158.901V99.0909H160.18L166.146 107.678H166.252V99.0909H167.552ZM172.587 110H169.22V99.0909H172.736C173.794 99.0909 174.7 99.3093 175.452 99.7461C176.205 100.179 176.782 100.803 177.184 101.616C177.585 102.425 177.786 103.395 177.786 104.524C177.786 105.661 177.583 106.639 177.178 107.459C176.774 108.276 176.184 108.904 175.41 109.345C174.636 109.782 173.695 110 172.587 110ZM170.541 108.828H172.501C173.403 108.828 174.151 108.654 174.744 108.306C175.337 107.958 175.779 107.463 176.07 106.82C176.362 106.177 176.507 105.412 176.507 104.524C176.507 103.643 176.363 102.885 176.076 102.25C175.788 101.61 175.358 101.12 174.787 100.779C174.215 100.435 173.503 100.263 172.651 100.263H170.541V108.828ZM179.026 110V99.0909H182.713C183.565 99.0909 184.264 99.2365 184.811 99.5277C185.358 99.8153 185.763 100.211 186.026 100.716C186.289 101.22 186.42 101.793 186.42 102.436C186.42 103.079 186.289 103.649 186.026 104.146C185.763 104.643 185.36 105.034 184.817 105.318C184.273 105.598 183.579 105.739 182.734 105.739H179.751V104.545H182.691C183.274 104.545 183.742 104.46 184.098 104.29C184.456 104.119 184.715 103.878 184.875 103.565C185.039 103.249 185.12 102.873 185.12 102.436C185.12 101.999 185.039 101.618 184.875 101.291C184.712 100.964 184.451 100.712 184.092 100.534C183.734 100.353 183.259 100.263 182.67 100.263H180.348V110H179.026ZM184.161 105.099L186.846 110H185.312L182.67 105.099H184.161ZM196.851 104.545C196.851 105.696 196.643 106.69 196.228 107.528C195.812 108.366 195.242 109.013 194.518 109.467C193.793 109.922 192.966 110.149 192.035 110.149C191.105 110.149 190.278 109.922 189.553 109.467C188.829 109.013 188.259 108.366 187.843 107.528C187.428 106.69 187.22 105.696 187.22 104.545C187.22 103.395 187.428 102.401 187.843 101.562C188.259 100.724 188.829 100.078 189.553 99.6236C190.278 99.169 191.105 98.9418 192.035 98.9418C192.966 98.9418 193.793 99.169 194.518 99.6236C195.242 100.078 195.812 100.724 196.228 101.562C196.643 102.401 196.851 103.395 196.851 104.545ZM195.572 104.545C195.572 103.601 195.414 102.804 195.098 102.154C194.786 101.504 194.361 101.012 193.825 100.678C193.293 100.344 192.696 100.178 192.035 100.178C191.375 100.178 190.777 100.344 190.24 100.678C189.708 101.012 189.283 101.504 188.967 102.154C188.655 102.804 188.498 103.601 188.498 104.545C188.498 105.49 188.655 106.287 188.967 106.937C189.283 107.587 189.708 108.079 190.24 108.413C190.777 108.746 191.375 108.913 192.035 108.913C192.696 108.913 193.293 108.746 193.825 108.413C194.361 108.079 194.786 107.587 195.098 106.937C195.414 106.287 195.572 105.49 195.572 104.545ZM198.097 99.0909H199.674L203.381 108.146H203.509L207.216 99.0909H208.793V110H207.557V101.712H207.451L204.042 110H202.848L199.439 101.712H199.333V110H198.097V99.0909ZM217.626 99.0909H218.947V106.314C218.947 107.06 218.771 107.725 218.419 108.311C218.071 108.894 217.58 109.354 216.944 109.691C216.308 110.025 215.563 110.192 214.707 110.192C213.851 110.192 213.105 110.025 212.47 109.691C211.834 109.354 211.34 108.894 210.989 108.311C210.641 107.725 210.467 107.06 210.467 106.314V99.0909H211.788V106.207C211.788 106.74 211.905 107.214 212.139 107.63C212.374 108.042 212.707 108.366 213.141 108.604C213.578 108.839 214.1 108.956 214.707 108.956C215.314 108.956 215.836 108.839 216.273 108.604C216.71 108.366 217.043 108.042 217.274 107.63C217.509 107.214 217.626 106.74 217.626 106.207V99.0909Z" fill="#22223A"/>
<path d="M223.768 99.0909L227.007 108.274H227.135L230.374 99.0909H231.759L227.753 110H226.389L222.384 99.0909H223.768ZM231.768 110H230.383L234.388 99.0909H235.752L239.758 110H238.373L235.113 100.817H235.028L231.768 110ZM232.279 105.739H237.861V106.911H232.279V105.739ZM240.257 110V99.0909H241.578V104.503H241.706L246.606 99.0909H248.332L243.751 104.013L248.332 110H246.734L242.942 104.929L241.578 106.463V110H240.257ZM248.842 110V99.0909H255.383V100.263H250.163V103.949H254.893V105.121H250.163V110H248.842ZM257.767 99.0909V110H256.446V99.0909H257.767Z" fill="#22223A"/>
</svg>
