<svg width="35" height="35" viewBox="0 0 35 35" fill="none" xmlns="http://www.w3.org/2000/svg">
<path d="M20.7 13.18V17.82H24.86C25.18 17.82 25.34 18.14 25.34 18.46L24.7 21.5C24.7 21.66 24.38 21.82 24.22 21.82H20.7V33.5H15.9V21.98H13.18C12.86 21.98 12.7 21.82 12.7 21.5V18.46C12.7 18.14 12.86 17.98 13.18 17.98H15.9V12.7C15.9 9.98002 17.98 7.90002 20.7 7.90002H25.02C25.34 7.90002 25.5 8.06002 25.5 8.38002V12.22C25.5 12.54 25.34 12.7 25.02 12.7H21.18C20.86 12.7 20.7 12.86 20.7 13.18Z" stroke="#17191C" stroke-width="2" stroke-miterlimit="10" stroke-linecap="round"/>
<path d="M22.3 33.5H12.7C4.7 33.5 1.5 30.3 1.5 22.3V12.7C1.5 4.7 4.7 1.5 12.7 1.5H22.3C30.3 1.5 33.5 4.7 33.5 12.7V22.3C33.5 30.3 30.3 33.5 22.3 33.5Z" stroke="#17191C" stroke-width="2" stroke-linecap="round" stroke-linejoin="round"/>
</svg>
