<svg width="93" height="67" viewBox="0 0 93 67" fill="none" xmlns="http://www.w3.org/2000/svg">
<path d="M64.4706 61.8884C65.8278 63.9243 68.0899 63.2457 68.9948 60.9836C64.8325 47.0489 68.0899 37.9099 77.1384 34.0643H78.0433C87.7704 38.1361 90.4849 50.5778 85.9607 58.9476C85.2821 64.1505 91.0792 63.4719 91.616 61.8884C96.1402 48.5419 88.9015 37.9099 79.6268 32.9333V32.0284C83.4724 30.2187 93.4257 18.0033 92.0684 11.8955C91.2553 8.2365 86.238 10.0858 86.4131 11.4431C87.318 18.4557 82.7937 28.8614 78.0433 30.6712C77.5004 31.0331 76.9122 30.822 76.686 30.6712C72.5237 27.7757 68.3162 19.3606 68.7686 12.348C68.3162 9.63342 63.5657 9.18102 62.6609 11.6693C62.4799 20.5369 71.4831 28.6352 75.3287 32.0284V32.9333C66.9589 37.6837 59.9463 47.8633 64.4706 61.8884Z" fill="#2F6C81"/>
<path d="M74.8763 19.5868C75.0573 21.5774 76.9122 22.2259 77.8171 22.3013C78.8727 22.3013 80.984 21.7131 80.984 19.3605C80.984 17.0079 78.8727 16.4198 77.8171 16.4198C75.8264 16.4198 74.8763 18.0033 74.8763 19.5868Z" fill="#2F6C81"/>
<path d="M26.2406 3.9781C31.3078 -1.08905 36.1939 3.07324 34.6104 6.014C30.0862 15.2887 32.3483 24.4729 38.6823 30.4449C30.9911 30.4449 24.6119 17.3699 26.2406 3.9781Z" fill="#982D3D"/>
<path d="M47.0521 34.2906C45.9663 34.1096 45.921 34.2906 46.3734 34.9692C56.3268 41.5294 60.8058 49.5373 61.5296 58.9477C61.7384 61.6623 66.0086 63.9244 67.6374 59.4002C67.6374 48.7682 54.9695 38.3624 47.0521 34.2906Z" fill="#A85432"/>
<path d="M7.01259 59.1739C0.678637 46.2798 9.72715 34.9692 15.1562 34.0644H16.0611C23.6618 36.9599 28.7289 43.1129 23.2998 62.1147C25.4715 66.277 28.2765 63.9244 29.1814 61.8885C29.5433 52.659 33.027 41.7556 17.4183 32.7071V32.0285C22.395 29.0877 28.5027 22.5276 29.4076 12.8004C27.055 8.45716 24.2047 10.5383 23.7523 12.8004C24.2047 22.5276 17.8708 30.8974 15.1562 30.8974C12.4417 30.8974 6.10773 18.0033 6.78636 11.8956C6.10773 8.50241 0.678636 8.50241 0 11.8956C0.361939 18.9534 7.91742 29.5401 13.1203 32.0285V32.7071C1.17633 38.4981 -1.58348 50.8041 0.904881 61.2098C5.24815 66.096 7.46503 61.2098 7.01259 59.1739Z" fill="#9A5B64"/>
<path d="M11.0844 18.4557C11.0844 21.3965 13.2711 22.2259 14.2514 22.5276C15.4578 22.0751 17.8708 20.8536 17.8708 19.5868C17.8708 18.0033 16.0611 15.9674 14.2514 15.9674C12.4417 15.9674 11.0844 17.0985 11.0844 18.4557Z" fill="#9A5B64"/>
<path d="M40.9443 12.1218C40.9443 14.384 42.754 15.515 44.5637 15.515C46.3734 15.515 48.1831 14.1577 48.1831 12.1218C48.1831 10.3121 45.9209 8.95486 44.5637 8.95486C42.3015 8.95486 40.9443 10.4091 40.9443 12.1218Z" fill="#335B7E"/>
<path d="M65.6014 2.84714C63.9727 -0.953224 59.9461 -0.546069 58.1364 1.71608C57.684 17.5509 53.6122 22.0299 44.5637 29.0877C29.4075 37.6837 26.2405 50.5778 30.991 65.2816C33.2531 67.5437 36.6463 65.2816 37.0987 63.6981C34.6104 57.5904 29.6337 39.4934 44.5637 31.3498C60.6247 20.0392 64.9228 14.1577 65.6014 2.84714Z" fill="#335B7E"/>
</svg>
