<svg width="33" height="33" viewBox="0 0 33 33" fill="none" xmlns="http://www.w3.org/2000/svg">
<path d="M27.7 0.5H5.3C2.64903 0.5 0.5 2.64903 0.5 5.3V27.7C0.5 30.351 2.64903 32.5 5.3 32.5H27.7C30.351 32.5 32.5 30.351 32.5 27.7V5.3C32.5 2.64903 30.351 0.5 27.7 0.5Z" fill="#1877F2"/>
<path d="M22.725 21.125L23.4375 16.5H19V13.5C19 12.2375 19.6188 11 21.6063 11H23.625V7.0625C23.625 7.0625 21.7938 6.75 20.0438 6.75C16.3875 6.75 14 8.9625 14 12.975V16.5H9.9375V21.125H14V32.5H19V21.125H22.725Z" fill="white"/>
</svg>
