<svg width="34" height="34" viewBox="0 0 34 34" fill="none" xmlns="http://www.w3.org/2000/svg">
<path d="M25 1H9C4.58172 1 1 4.58172 1 9V25C1 29.4183 4.58172 33 9 33H25C29.4183 33 33 29.4183 33 25V9C33 4.58172 29.4183 1 25 1Z" stroke="black" stroke-width="2" stroke-linecap="round" stroke-linejoin="round"/>
<path d="M23.4 15.992C23.5974 17.3236 23.37 18.6835 22.75 19.8784C22.13 21.0733 21.149 22.0423 19.9466 22.6475C18.7441 23.2527 17.3815 23.4634 16.0524 23.2495C14.7234 23.0356 13.4956 22.4081 12.5437 21.4563C11.5918 20.5044 10.9643 19.2766 10.7505 17.9475C10.5366 16.6185 10.7473 15.2558 11.3525 14.0534C11.9577 12.851 12.9267 11.87 14.1215 11.25C15.3164 10.63 16.6764 10.4025 18.008 10.6C19.3662 10.8014 20.6237 11.4343 21.5947 12.4053C22.5656 13.3762 23.1986 14.6337 23.4 15.992Z" stroke="black" stroke-width="2" stroke-linecap="round" stroke-linejoin="round"/>
<path d="M25.8 8.19995H25.816" stroke="black" stroke-width="2" stroke-linecap="round" stroke-linejoin="round"/>
</svg>
